<mxfile host="Electron" modified="2023-06-05T05:38:02.978Z" agent="Mozilla/5.0 (X11; Linux x86_64) AppleWebKit/537.36 (KHTML, like Gecko) draw.io/21.2.8 Chrome/112.0.5615.165 Electron/24.2.0 Safari/537.36" etag="2cFLYzjhhKYc-9hOZTtk" version="21.2.8" type="device">
  <diagram id="C5RBs43oDa-KdzZeNtuy" name="Page-1">
    <mxGraphModel dx="462" dy="822" grid="1" gridSize="10" guides="1" tooltips="1" connect="1" arrows="1" fold="1" page="1" pageScale="1" pageWidth="827" pageHeight="1169" math="0" shadow="0">
      <root>
        <mxCell id="WIyWlLk6GJQsqaUBKTNV-0" />
        <mxCell id="WIyWlLk6GJQsqaUBKTNV-1" parent="WIyWlLk6GJQsqaUBKTNV-0" />
        <mxCell id="10mmyBgG_08Fz78tV2np-2" value="" style="edgeStyle=orthogonalEdgeStyle;rounded=0;orthogonalLoop=1;jettySize=auto;html=1;" edge="1" parent="WIyWlLk6GJQsqaUBKTNV-1" source="10mmyBgG_08Fz78tV2np-0" target="10mmyBgG_08Fz78tV2np-1">
          <mxGeometry relative="1" as="geometry" />
        </mxCell>
        <mxCell id="10mmyBgG_08Fz78tV2np-0" value="vaciarSecuencia ( s : [int] ):&lt;br&gt;&lt;br&gt;# s es inout, pasa por ref." style="rounded=0;whiteSpace=wrap;html=1;fillColor=#fff2cc;strokeColor=#d6b656;" vertex="1" parent="WIyWlLk6GJQsqaUBKTNV-1">
          <mxGeometry x="159" y="92" width="196" height="110" as="geometry" />
        </mxCell>
        <mxCell id="10mmyBgG_08Fz78tV2np-4" value="" style="edgeStyle=orthogonalEdgeStyle;rounded=0;orthogonalLoop=1;jettySize=auto;html=1;" edge="1" parent="WIyWlLk6GJQsqaUBKTNV-1" source="10mmyBgG_08Fz78tV2np-1" target="10mmyBgG_08Fz78tV2np-3">
          <mxGeometry relative="1" as="geometry" />
        </mxCell>
        <mxCell id="10mmyBgG_08Fz78tV2np-1" value="i : int = 0" style="rounded=0;whiteSpace=wrap;html=1;fillColor=#d5e8d4;strokeColor=#82b366;" vertex="1" parent="WIyWlLk6GJQsqaUBKTNV-1">
          <mxGeometry x="183.5" y="282" width="147" height="80" as="geometry" />
        </mxCell>
        <mxCell id="10mmyBgG_08Fz78tV2np-6" value="FALSE" style="edgeStyle=orthogonalEdgeStyle;rounded=0;orthogonalLoop=1;jettySize=auto;html=1;" edge="1" parent="WIyWlLk6GJQsqaUBKTNV-1" source="10mmyBgG_08Fz78tV2np-3" target="10mmyBgG_08Fz78tV2np-5">
          <mxGeometry relative="1" as="geometry" />
        </mxCell>
        <mxCell id="10mmyBgG_08Fz78tV2np-10" value="TRUE" style="edgeStyle=orthogonalEdgeStyle;rounded=0;orthogonalLoop=1;jettySize=auto;html=1;exitX=1;exitY=0.25;exitDx=0;exitDy=0;entryX=0;entryY=0.25;entryDx=0;entryDy=0;" edge="1" parent="WIyWlLk6GJQsqaUBKTNV-1" source="10mmyBgG_08Fz78tV2np-3" target="10mmyBgG_08Fz78tV2np-7">
          <mxGeometry relative="1" as="geometry" />
        </mxCell>
        <mxCell id="10mmyBgG_08Fz78tV2np-3" value="while i &amp;lt; len(s)" style="rounded=0;whiteSpace=wrap;html=1;fillColor=#d5e8d4;strokeColor=#82b366;" vertex="1" parent="WIyWlLk6GJQsqaUBKTNV-1">
          <mxGeometry x="183.5" y="442" width="147" height="80" as="geometry" />
        </mxCell>
        <mxCell id="10mmyBgG_08Fz78tV2np-5" value="return" style="rounded=0;whiteSpace=wrap;html=1;fillColor=#d5e8d4;strokeColor=#82b366;" vertex="1" parent="WIyWlLk6GJQsqaUBKTNV-1">
          <mxGeometry x="183.5" y="602" width="147" height="80" as="geometry" />
        </mxCell>
        <mxCell id="10mmyBgG_08Fz78tV2np-12" style="edgeStyle=orthogonalEdgeStyle;rounded=0;orthogonalLoop=1;jettySize=auto;html=1;exitX=0;exitY=0.75;exitDx=0;exitDy=0;entryX=1;entryY=0.75;entryDx=0;entryDy=0;" edge="1" parent="WIyWlLk6GJQsqaUBKTNV-1" source="10mmyBgG_08Fz78tV2np-7" target="10mmyBgG_08Fz78tV2np-3">
          <mxGeometry relative="1" as="geometry" />
        </mxCell>
        <mxCell id="10mmyBgG_08Fz78tV2np-7" value="s[i] = 0" style="rounded=0;whiteSpace=wrap;html=1;fillColor=#d5e8d4;strokeColor=#82b366;" vertex="1" parent="WIyWlLk6GJQsqaUBKTNV-1">
          <mxGeometry x="399" y="442" width="147" height="80" as="geometry" />
        </mxCell>
        <mxCell id="10mmyBgG_08Fz78tV2np-14" value="&lt;h1&gt;Ejercicio 2 y&lt;br&gt;Ejercicio 3&lt;/h1&gt;&lt;div&gt;&lt;div style=&quot;border-color: var(--border-color); text-align: justify;&quot;&gt;Tener en cuenta que aca el valor pasa por referencia.&lt;/div&gt;&lt;div style=&quot;border-color: var(--border-color); text-align: justify;&quot;&gt;&lt;span style=&quot;border-color: var(--border-color); background-color: initial;&quot;&gt;No hablamos de un return,&amp;nbsp;&lt;/span&gt;&lt;span style=&quot;border-color: var(--border-color); background-color: initial;&quot;&gt;si no de un x post ejecucion modificado.&lt;/span&gt;&lt;/div&gt;&lt;div style=&quot;border-color: var(--border-color); text-align: justify;&quot;&gt;&amp;nbsp;Con solo un test ya ejecutamos la unica branch y con esto todas las lineas.&lt;/div&gt;&lt;/div&gt;" style="text;html=1;strokeColor=none;fillColor=none;spacing=5;spacingTop=-20;whiteSpace=wrap;overflow=hidden;rounded=0;" vertex="1" parent="WIyWlLk6GJQsqaUBKTNV-1">
          <mxGeometry x="518.5" y="85" width="231.5" height="175" as="geometry" />
        </mxCell>
        <mxCell id="10mmyBgG_08Fz78tV2np-28" value="" style="shape=table;startSize=0;container=1;collapsible=0;childLayout=tableLayout;" vertex="1" parent="WIyWlLk6GJQsqaUBKTNV-1">
          <mxGeometry x="518.5" y="270" width="231.5" height="60" as="geometry" />
        </mxCell>
        <mxCell id="10mmyBgG_08Fz78tV2np-29" value="" style="shape=tableRow;horizontal=0;startSize=0;swimlaneHead=0;swimlaneBody=0;strokeColor=inherit;top=0;left=0;bottom=0;right=0;collapsible=0;dropTarget=0;fillColor=none;points=[[0,0.5],[1,0.5]];portConstraint=eastwest;" vertex="1" parent="10mmyBgG_08Fz78tV2np-28">
          <mxGeometry width="231.5" height="30" as="geometry" />
        </mxCell>
        <mxCell id="10mmyBgG_08Fz78tV2np-30" value="" style="shape=partialRectangle;html=1;whiteSpace=wrap;connectable=0;strokeColor=#666666;overflow=hidden;fillColor=#f5f5f5;top=0;left=0;bottom=0;right=0;pointerEvents=1;fontColor=#333333;" vertex="1" parent="10mmyBgG_08Fz78tV2np-29">
          <mxGeometry width="78" height="30" as="geometry">
            <mxRectangle width="78" height="30" as="alternateBounds" />
          </mxGeometry>
        </mxCell>
        <mxCell id="10mmyBgG_08Fz78tV2np-31" value="x" style="shape=partialRectangle;html=1;whiteSpace=wrap;connectable=0;strokeColor=#82b366;overflow=hidden;fillColor=#d5e8d4;top=0;left=0;bottom=0;right=0;pointerEvents=1;" vertex="1" parent="10mmyBgG_08Fz78tV2np-29">
          <mxGeometry x="78" width="76" height="30" as="geometry">
            <mxRectangle width="76" height="30" as="alternateBounds" />
          </mxGeometry>
        </mxCell>
        <mxCell id="10mmyBgG_08Fz78tV2np-32" value="x post ejecucion" style="shape=partialRectangle;html=1;whiteSpace=wrap;connectable=0;strokeColor=#82b366;overflow=hidden;fillColor=#d5e8d4;top=0;left=0;bottom=0;right=0;pointerEvents=1;" vertex="1" parent="10mmyBgG_08Fz78tV2np-29">
          <mxGeometry x="154" width="78" height="30" as="geometry">
            <mxRectangle width="78" height="30" as="alternateBounds" />
          </mxGeometry>
        </mxCell>
        <mxCell id="10mmyBgG_08Fz78tV2np-33" value="" style="shape=tableRow;horizontal=0;startSize=0;swimlaneHead=0;swimlaneBody=0;strokeColor=inherit;top=0;left=0;bottom=0;right=0;collapsible=0;dropTarget=0;fillColor=none;points=[[0,0.5],[1,0.5]];portConstraint=eastwest;" vertex="1" parent="10mmyBgG_08Fz78tV2np-28">
          <mxGeometry y="30" width="231.5" height="30" as="geometry" />
        </mxCell>
        <mxCell id="10mmyBgG_08Fz78tV2np-34" value="test" style="shape=partialRectangle;html=1;whiteSpace=wrap;connectable=0;strokeColor=#82b366;overflow=hidden;fillColor=#d5e8d4;top=0;left=0;bottom=0;right=0;pointerEvents=1;" vertex="1" parent="10mmyBgG_08Fz78tV2np-33">
          <mxGeometry width="78" height="30" as="geometry">
            <mxRectangle width="78" height="30" as="alternateBounds" />
          </mxGeometry>
        </mxCell>
        <mxCell id="10mmyBgG_08Fz78tV2np-35" value="[2,2,2]" style="shape=partialRectangle;html=1;whiteSpace=wrap;connectable=0;strokeColor=#d6b656;overflow=hidden;fillColor=#fff2cc;top=0;left=0;bottom=0;right=0;pointerEvents=1;" vertex="1" parent="10mmyBgG_08Fz78tV2np-33">
          <mxGeometry x="78" width="76" height="30" as="geometry">
            <mxRectangle width="76" height="30" as="alternateBounds" />
          </mxGeometry>
        </mxCell>
        <mxCell id="10mmyBgG_08Fz78tV2np-36" value="[0,0,0]" style="shape=partialRectangle;html=1;whiteSpace=wrap;connectable=0;strokeColor=#d6b656;overflow=hidden;fillColor=#fff2cc;top=0;left=0;bottom=0;right=0;pointerEvents=1;" vertex="1" parent="10mmyBgG_08Fz78tV2np-33">
          <mxGeometry x="154" width="78" height="30" as="geometry">
            <mxRectangle width="78" height="30" as="alternateBounds" />
          </mxGeometry>
        </mxCell>
      </root>
    </mxGraphModel>
  </diagram>
</mxfile>
